# xmcd
#
# Track frame offsets:
#	150
#	24587
#	43063
#	74463
#	98086
#	128913
#	153736
#	186148
#	274043
#	285548
#
# Disc length: 4328 seconds
#
# Revision: 3
# Processed by: cddbd v1.5.1PL0 Copyright (c) Steve Scherf et al.
# Submitted via: audiograbber 1.83.01
#
DISCID=8f10e60a
DTITLE=Gashouse Dave and The Hardtails - Full Service - Live In Paris - CD2
DYEAR=2004
DGENRE=Blues
TTITLE0=Wanna Come Back Home
TTITLE1=Crosscut Saw
TTITLE2=L. A. Times
TTITLE3=House Of Correction
TTITLE4=Rockin' In The Same Old Boat
TTITLE5=Do Me
TTITLE6=Playing With A Broken Heart
TTITLE7=Gravity
TTITLE8=Train Kept- A-Rollin'
TTITLE9=Voodoo Child
EXTD=YEAR: 2004
EXTT0=
EXTT1=
EXTT2=
EXTT3=
EXTT4=
EXTT5=
EXTT6=
EXTT7=
EXTT8=
EXTT9=
PLAYORDER=
